<?xml version="1.0" standalone="no"?>
<!DOCTYPE svg PUBLIC "-//W3C//DTD SVG 20010904//EN"
 "http://www.w3.org/TR/2001/REC-SVG-20010904/DTD/svg10.dtd">
<svg version="1.0" xmlns="http://www.w3.org/2000/svg"
 width="577.000000pt" height="433.000000pt" viewBox="0 0 577.000000 433.000000"
 preserveAspectRatio="xMidYMid meet">

<g transform="translate(0.000000,433.000000) scale(0.100000,-0.100000)"
fill="#000000" stroke="none">
<path d="M2622 4123 c-70 -4 -74 -5 -69 -26 9 -33 11 -849 4 -872 -6 -17 -14
-20 -42 -17 -23 3 -35 0 -35 -8 0 -7 -6 -5 -16 4 -14 15 -60 16 -414 12 -219
-2 -403 -7 -409 -10 -17 -11 -15 -642 2 -653 6 -4 207 -10 445 -13 370 -4 434
-7 442 -20 6 -9 10 -280 10 -681 0 -625 1 -667 18 -675 9 -4 95 -9 190 -12
127 -3 171 -7 163 -15 -6 -6 -11 -33 -11 -59 0 -47 -1 -48 -30 -48 -25 0 -30
-4 -30 -24 0 -18 7 -25 30 -29 l30 -6 0 -123 c1 -128 5 -144 47 -166 34 -18
110 -15 117 4 8 22 -11 44 -39 44 -36 0 -43 19 -47 130 l-3 105 40 5 c34 4 40
9 43 32 3 24 0 27 -35 30 l-38 3 -3 58 -3 59 118 -3 118 -4 5 675 c3 371 9
681 13 688 6 9 100 12 411 12 348 0 405 2 416 15 19 23 27 659 9 682 -12 14
-57 14 -425 8 -395 -7 -413 -6 -422 11 -5 11 -12 204 -15 446 -3 235 -8 431
-12 437 -6 10 -383 13 -573 4z m153 -201 c71 -37 94 -54 107 -82 23 -46 24
-147 2 -171 -15 -17 -15 -22 -1 -56 l15 -38 23 47 c21 43 22 51 10 100 -16 67
0 109 64 174 64 64 81 60 89 -21 8 -82 -5 -114 -79 -195 -67 -73 -84 -109 -92
-198 l-6 -67 39 73 c46 85 82 125 135 152 61 32 72 28 67 -24 -11 -91 -64
-150 -206 -227 -27 -15 -30 -23 -37 -84 -4 -37 -18 -104 -31 -149 -18 -63 -24
-105 -24 -188 0 -59 4 -109 8 -112 5 -3 21 31 37 75 26 76 65 139 86 139 4 0
-5 -20 -22 -45 -28 -41 -84 -184 -75 -192 2 -2 39 49 82 113 104 153 119 166
227 188 48 10 90 16 93 13 11 -11 -78 -118 -134 -162 -31 -25 -96 -66 -144
-91 -49 -26 -88 -51 -88 -56 0 -6 7 -8 15 -4 8 3 45 8 81 12 57 6 72 13 127
54 73 55 122 86 200 128 60 32 167 75 173 69 8 -7 -42 -92 -72 -122 -41 -42
-100 -70 -198 -94 -43 -11 -81 -23 -84 -27 -9 -8 327 2 351 11 13 6 17 19 17
62 0 129 53 199 173 227 46 11 32 -16 -43 -87 -44 -41 -79 -84 -91 -112 -26
-59 -20 -80 10 -32 55 90 166 157 258 157 l33 0 -17 -42 c-29 -78 -98 -129
-237 -178 -63 -23 -44 -34 42 -26 37 4 98 4 135 0 61 -6 72 -11 105 -43 40
-40 80 -106 70 -117 -4 -3 -51 -7 -105 -7 -112 -1 -144 9 -255 85 -96 66 -239
94 -343 68 l-30 -8 30 -1 c36 -1 184 -85 240 -136 30 -27 34 -35 18 -30 -12 3
-45 -2 -73 -11 -40 -13 -70 -15 -136 -10 -136 10 -243 60 -318 147 -31 37 -39
41 -67 35 -33 -6 -59 -22 -59 -36 0 -5 21 -24 48 -43 85 -62 180 -157 203
-203 19 -40 21 -57 16 -137 -2 -51 -10 -105 -17 -122 l-12 -30 -14 25 c-14 24
-15 24 -11 3 3 -13 4 -23 2 -23 -10 0 -133 205 -188 315 -65 128 -66 129 -78
100 -11 -30 -7 -217 6 -260 4 -12 33 -34 68 -53 79 -40 129 -89 161 -155 30
-61 42 -107 29 -107 -17 0 -128 71 -161 103 -18 18 -47 52 -64 77 l-30 45 6
-68 c9 -94 18 -112 73 -143 130 -74 171 -121 199 -226 14 -53 19 -118 9 -118
-16 0 -97 45 -140 78 -71 53 -125 145 -125 211 0 12 -4 19 -10 16 -13 -8 -12
-115 3 -193 l12 -63 70 -24 c54 -18 78 -33 107 -65 33 -37 62 -111 51 -132 -2
-4 -26 -5 -55 -3 -56 4 -91 24 -125 75 -41 59 -24 15 18 -51 57 -87 69 -119
69 -182 0 -55 -32 -147 -51 -147 -12 0 -85 149 -104 214 -13 41 -14 85 -9 231
7 175 0 220 -17 113 -11 -69 -65 -174 -106 -205 l-32 -24 -12 23 c-7 13 -13
50 -14 83 0 66 22 113 90 195 82 99 97 189 70 420 -24 201 -29 323 -17 360 15
43 -3 28 -30 -23 -35 -68 -36 -163 -3 -293 20 -77 28 -131 27 -185 -2 -79 -32
-233 -50 -251 -11 -11 -54 49 -108 152 -26 49 -29 64 -28 145 1 95 18 155 85
303 16 34 29 65 29 68 0 13 35 81 62 121 15 23 28 45 28 50 0 15 -54 41 -100
48 -25 4 -75 1 -110 -5 -36 -7 -95 -12 -131 -12 l-66 1 -70 -69 c-39 -38 -88
-76 -109 -85 -45 -19 -160 -23 -177 -6 -6 6 -21 11 -34 11 -31 0 -29 9 13 52
45 47 120 83 209 101 62 13 67 15 40 22 -16 3 -43 11 -59 16 -16 5 -52 9 -80
9 -45 0 -59 -5 -106 -41 -101 -76 -206 -108 -261 -79 -29 16 -23 35 27 79 51
45 94 61 169 61 l50 1 -58 19 c-31 10 -78 35 -103 55 -48 39 -94 118 -94 160
0 30 7 29 96 -10 68 -30 113 -72 149 -139 16 -30 39 -60 50 -65 11 -5 52 -12
90 -14 l70 -5 -72 37 c-82 41 -134 86 -153 131 -20 49 -2 57 64 27 70 -32 148
-105 175 -162 14 -29 29 -46 43 -49 100 -21 140 -26 215 -26 100 0 99 10 -3
34 -108 26 -188 79 -258 170 -47 63 -48 86 -1 86 44 0 146 -33 203 -67 26 -15
71 -60 114 -114 64 -82 73 -89 105 -89 l35 0 -34 43 c-105 128 -136 181 -153
255 -6 29 -4 32 17 32 14 0 49 -12 79 -27 68 -35 102 -85 124 -183 25 -113 32
-126 75 -143 36 -14 38 -14 39 7 12 152 8 204 -14 186 -8 -6 -11 -28 -9 -58 3
-38 2 -41 -4 -17 -5 17 -14 40 -20 52 -17 32 -15 41 15 56 l27 15 -42 21 c-98
50 -172 144 -172 220 0 26 -4 63 -9 83 -11 49 3 62 46 41 74 -35 177 -180 199
-278 6 -29 7 -28 19 20 7 28 16 82 19 120 l7 70 -87 54 c-125 78 -161 126
-163 214 -1 33 2 37 24 37 34 0 94 -26 123 -53 32 -30 59 -76 83 -139 l20 -53
-6 70 c-8 108 -25 163 -54 181 -129 82 -171 140 -171 237 0 71 4 72 125 9z
m385 -563 c0 -114 -37 -165 -188 -258 -46 -28 -85 -51 -88 -51 -7 0 9 65 34
135 25 71 49 110 110 177 35 38 109 81 124 72 4 -3 8 -37 8 -75z m-462 -577
c2 -7 -27 -43 -65 -81 -59 -59 -76 -70 -114 -76 -56 -8 -101 -4 -106 11 -2 6
8 25 22 42 67 80 247 151 263 104z"/>
<path d="M1267 1196 c-59 -16 -94 -48 -108 -99 -9 -33 -7 -45 13 -85 27 -55
75 -90 164 -122 68 -24 89 -41 99 -81 14 -55 -61 -77 -150 -43 -72 28 -81 28
-104 -2 -16 -20 -18 -30 -10 -40 19 -23 137 -54 205 -54 59 0 67 3 103 36 46
41 66 90 55 136 -12 58 -35 80 -134 126 -52 24 -103 51 -112 60 -21 18 -24 82
-6 100 18 18 91 14 143 -8 35 -15 51 -17 66 -10 81 44 -109 116 -224 86z"/>
<path d="M3275 1168 c-95 -42 -135 -111 -137 -233 -1 -142 66 -228 207 -261
l72 -17 56 26 c61 28 86 57 63 76 -10 9 -21 8 -42 0 -16 -7 -60 -13 -99 -15
-62 -2 -74 1 -103 22 -44 34 -60 61 -71 117 -16 90 18 184 81 222 38 22 119
23 153 1 36 -24 70 -18 70 13 0 65 -149 94 -250 49z"/>
<path d="M4373 1030 c-58 -12 -121 -54 -130 -88 -14 -50 -8 -135 12 -177 11
-22 39 -53 63 -70 37 -25 55 -30 118 -33 76 -4 134 10 134 32 0 23 -44 56 -60
46 -8 -5 -41 -10 -73 -10 -50 0 -61 4 -82 26 -14 15 -25 38 -25 50 0 24 0 24
125 24 l125 0 0 48 c0 116 -83 177 -207 152z m112 -70 c8 -16 15 -38 15 -50 0
-20 -5 -21 -77 -18 -70 3 -78 5 -81 24 -2 11 7 32 18 47 18 22 30 27 65 27 39
0 46 -4 60 -30z"/>
<path d="M1580 850 l0 -180 45 0 45 0 0 134 c0 149 -1 146 70 146 21 0 42 -6
47 -12 4 -7 10 -69 13 -138 l5 -125 38 -3 37 -3 0 111 c0 111 7 143 39 167 18
14 70 17 88 5 22 -14 33 -63 33 -147 0 -108 11 -137 48 -133 l27 3 3 115 c4
130 -7 180 -45 209 -38 31 -119 29 -167 -4 l-38 -26 -19 25 c-11 14 -35 28
-54 32 -31 5 -52 1 -107 -21 -13 -5 -18 -2 -18 9 0 12 -10 16 -45 16 l-45 0 0
-180z"/>
<path d="M2263 1019 c-27 -8 -33 -15 -33 -38 0 -38 8 -43 42 -25 16 9 47 14
71 12 34 -2 44 -8 54 -30 19 -38 8 -58 -28 -51 -44 8 -136 -6 -160 -26 -15
-12 -23 -32 -26 -67 -6 -61 19 -98 78 -116 35 -10 49 -9 96 7 38 13 57 15 61
8 11 -18 59 -26 67 -12 5 6 8 72 8 145 1 126 0 135 -22 158 -38 40 -135 56
-208 35z m143 -194 c24 -62 -70 -112 -126 -67 -27 22 -20 58 13 72 37 15 107
12 113 -5z"/>
<path d="M2723 1019 c-18 -5 -37 -18 -43 -30 -13 -23 -30 -16 -30 12 0 15 -7
19 -35 19 l-35 0 2 -172 3 -173 30 0 30 0 5 117 c6 137 12 148 90 156 l51 5
-3 36 c-3 40 -14 45 -65 30z"/>
<path d="M3675 1023 c-33 -8 -46 -23 -36 -42 8 -13 22 -15 73 -13 53 3 68 0
91 -18 16 -13 27 -31 27 -46 0 -23 -3 -24 -66 -24 -109 0 -174 -45 -174 -121
0 -71 71 -109 176 -93 32 4 55 15 71 32 l23 25 0 -27 c0 -22 4 -26 29 -26 l28
0 7 99 c10 151 -13 215 -88 246 -34 14 -118 18 -161 8z m139 -237 c-1 -58 -19
-76 -75 -76 -44 0 -69 21 -69 58 0 50 34 73 100 69 l45 -2 -1 -49z"/>
<path d="M4013 1023 c-23 -4 -23 -6 -23 -184 l0 -180 43 3 42 3 3 132 3 133
27 14 c15 7 45 17 67 21 42 7 55 18 55 48 0 13 -8 17 -34 17 -34 0 -96 -28
-96 -42 0 -18 -28 -6 -38 17 -6 14 -15 24 -19 24 -5 -1 -18 -4 -30 -6z"/>
<path d="M3469 769 c-23 -19 -23 -20 -2 -10 12 6 25 16 28 21 10 16 -1 12 -26
-11z"/>
</g>
</svg>
